<?xml version="1.0" encoding="UTF-8"?>
<svg xmlns="http://www.w3.org/2000/svg" xmlns:xlink="http://www.w3.org/1999/xlink" viewBox="0 0 256 256" width="256px" height="256px">
<g id="surface161276989">
<path style=" stroke:none;fill-rule:nonzero;fill:rgb(90.196079%,90.196079%,90.196079%);fill-opacity:1;" d="M 247.726562 61.757812 C 239.332031 65.476562 230.304688 67.957031 220.78125 69.128906 C 230.464844 63.378906 237.910156 54.210938 241.40625 43.378906 C 232.347656 48.691406 222.3125 52.59375 211.632812 54.648438 C 203.105469 45.609375 190.941406 40 177.464844 40 C 151.574219 40 130.597656 60.800781 130.597656 86.445312 C 130.597656 90.070312 131.019531 93.609375 131.820312 97.039062 C 92.875 95.085938 58.335938 76.570312 35.226562 48.476562 C 31.167969 55.339844 28.882812 63.378906 28.882812 71.863281 C 28.882812 87.988281 37.140625 102.179688 49.726562 110.542969 C 42.042969 110.308594 34.8125 108.171875 28.480469 104.742188 C 28.480469 104.882812 28.480469 105.09375 28.480469 105.289062 C 28.480469 127.820312 44.640625 146.578125 66.058594 150.851562 C 62.144531 151.925781 58.007812 152.519531 53.742188 152.519531 C 50.714844 152.519531 47.769531 152.175781 44.910156 151.664062 C 50.875 170.074219 68.179688 183.535156 88.679688 183.933594 C 72.640625 196.367188 52.441406 203.816406 30.472656 203.816406 C 26.675781 203.816406 22.96875 203.601562 19.300781 203.15625 C 40.046875 216.296875 64.691406 224 91.144531 224 C 177.339844 224 224.492188 153.214844 224.492188 91.8125 C 224.492188 89.800781 224.429688 87.796875 224.332031 85.816406 C 233.535156 79.320312 241.464844 71.121094 247.726562 61.757812 "/>
</g>
</svg>
